# xmcd
#
# Track frame offsets: 
#        150
#        11936
#        24955
#        36328
#        51747
#        68490
#        81578
#        95234
#        107353
#        119270
#        134524
#        146242
#        160645
#        175268
#        185455
#        193927
#        203291
#        218172
#        231108
#        246155
#        258159
#        268813
#        279757
#        289840
#
# Disc length: 4022 seconds
#
# Revision: 0
# Processed by: cddbd v1.5.2PL0 Copyright (c) Steve Scherf et al.
# Submitted via: ExactAudioCopy v0.99pb5
#
DISCID=670fb418
DTITLE=The Dixon Brothers - Weave Room Blues
DYEAR=1936
DGENRE=Country
TTITLE0=Intoxicated Rat
TTITLE1=Down With the Old Canoe
TTITLE2=Weave Room Blues
TTITLE3=Weaver's Life
TTITLE4=I Didn't Hear Anybody Pray
TTITLE5=A Wonderful Day
TTITLE6=Easter Day
TTITLE7=Beautiful Stars
TTITLE8=Darling, Do You Miss Me
TTITLE9=My Girl in Sunny Tennessee
TTITLE10=Bonnie Blue Eyes
TTITLE11=I'm Just Here to get My Baby out of Jail
TTITLE12=The School House Fire
TTITLE13=Sales Tax on the Women
TTITLE14=Blessed Promise
TTITLE15=The Well of Jacob/Jesus Said
TTITLE16=Always Waiting for You
TTITLE17=Hobo Jack the Rambler
TTITLE18=Wonder Who's Kissing Her - Part 2
TTITLE19=Prisoner's Plea
TTITLE20=Honey Baby Mine
TTITLE21=My Trundle Bed
TTITLE22=Answer to "Broken Engagement"
TTITLE23=The Lonely Prisoner
EXTD=
EXTT0=
EXTT1=
EXTT2=
EXTT3=
EXTT4=
EXTT5=
EXTT6=
EXTT7=
EXTT8=
EXTT9=
EXTT10=
EXTT11=
EXTT12=
EXTT13=
EXTT14=
EXTT15=
EXTT16=
EXTT17=
EXTT18=
EXTT19=
EXTT20=
EXTT21=
EXTT22=
EXTT23=
PLAYORDER=
